<?xml version="1.0" encoding="UTF-8" standalone="no"?>
<!-- Created with Inkscape (http://www.inkscape.org/) -->

<svg
   version="1.1"
   id="svg2"
   width="800"
   height="800"
   viewBox="0 0 800 800"
   sodipodi:docname="iStock-919118254.svg"
   inkscape:version="1.1.2 (b8e25be833, 2022-02-05)"
   inkscape:export-filename="C:\Users\vezix\Downloads\iStock-919118254.png"
   inkscape:export-xdpi="195.28"
   inkscape:export-ydpi="195.28"
   xmlns:inkscape="http://www.inkscape.org/namespaces/inkscape"
   xmlns:sodipodi="http://sodipodi.sourceforge.net/DTD/sodipodi-0.dtd"
   xmlns="http://www.w3.org/2000/svg"
   xmlns:svg="http://www.w3.org/2000/svg">
  <defs
     id="defs6" />
  <sodipodi:namedview
     id="namedview4"
     pagecolor="#ffffff"
     bordercolor="#000000"
     borderopacity="0.25"
     inkscape:showpageshadow="2"
     inkscape:pageopacity="0.0"
     inkscape:pagecheckerboard="0"
     inkscape:deskcolor="#d1d1d1"
     inkscape:pageshadow="0"
     showgrid="false"
     inkscape:zoom="0.89875"
     inkscape:cx="400"
     inkscape:cy="399.44367"
     inkscape:window-width="2560"
     inkscape:window-height="1417"
     inkscape:window-x="-8"
     inkscape:window-y="-8"
     inkscape:window-maximized="1"
     inkscape:current-layer="g8" />
  <g
     id="g8"
     inkscape:groupmode="layer"
     inkscape:label="ink_ext_XXXXXX"
     transform="matrix(1.3333333,0,0,-1.3333333,0,800)">
    <g
       id="g970"
       transform="matrix(1.3598386,0,0,1.3598386,-110.56905,-109.40026)"
       style="stroke-width:0.735381">
      <path
         d="m 402.012,410.374 -95.828,-114.913 -55.917,69.298 c -12.16,19.015 -56.253,-16.644 -48.196,-36.197 l 72.965,-101.521 c 19.43,-28.069 45.889,-21.551 61.036,2.514 0,0 166.531,251.544 159.776,256.722 -16.688,12.776 -37.428,-11.686 -93.836,-75.903"
         style="fill:#ff7f02;fill-opacity:1;fill-rule:nonzero;stroke:none;stroke-width:0.0735381"
         id="path14" />
      <path
         d="m 467.032,371.116 c 0,0 -2.865,6.134 -5.281,10.467 l -27.093,-41.36 C 438.532,327.251 440.5,313.781 440.5,300 440.5,222.528 377.472,159.5 300,159.5 c -77.472,0 -140.5,63.028 -140.5,140.5 0,77.472 63.028,140.5 140.5,140.5 28.764,0 56.408,-8.625 79.944,-24.944 L 407,447.667 c -30.333,23 -69.848,33.833 -107,33.833 -100.08,0 -181.5,-81.42 -181.5,-181.5 0,-100.079 81.42,-181.5 181.5,-181.5 100.079,0 181.5,81.421 181.5,181.5 0,24.667 -4.868,48.593 -14.468,71.116"
         style="fill:#000000;fill-opacity:1;fill-rule:nonzero;stroke:none;stroke-width:0.0735381"
         id="path16" />
    </g>
  </g>
</svg>
