<?xml version="1.0" standalone="no"?>
<!DOCTYPE svg PUBLIC "-//W3C//DTD SVG 20010904//EN"
 "http://www.w3.org/TR/2001/REC-SVG-20010904/DTD/svg10.dtd">
<svg version="1.0" xmlns="http://www.w3.org/2000/svg"
 width="102.000000pt" height="102.000000pt" viewBox="0 0 102.000000 102.000000"
 preserveAspectRatio="xMidYMid meet">
<metadata>
Created by potrace 1.14, written by Peter Selinger 2001-2017
</metadata>
<g transform="translate(0.000000,102.000000) scale(0.100000,-0.100000)"
fill="#000000" stroke="none">
<path d="M891 933 c-42 -43 -121 -132 -176 -198 -126 -151 -143 -171 -180
-212 l-30 -34 -64 80 c-35 44 -75 90 -88 102 -22 22 -24 22 -58 6 -36 -17 -78
-73 -71 -93 10 -27 209 -295 232 -313 27 -21 64 -20 99 3 11 8 58 73 105 145
47 72 118 182 158 244 117 179 203 327 197 338 -16 25 -52 5 -124 -68z"/>
<path d="M376 975 c-78 -20 -160 -65 -219 -120 -285 -270 -157 -740 225 -830
248 -58 495 83 573 327 31 96 29 224 -5 311 l-23 58 -37 -58 c-29 -45 -35 -63
-29 -81 5 -12 7 -57 5 -100 -8 -211 -183 -369 -395 -357 -116 6 -208 54 -281
146 -44 56 -80 156 -80 223 0 194 157 366 347 381 72 5 142 -8 203 -39 l48
-24 36 44 36 43 -42 25 c-101 57 -251 79 -362 51z"/>
</g>
</svg>
